<svg width="38" height="38" viewBox="0 0 38 38" fill="none" xmlns="http://www.w3.org/2000/svg">
<g filter="url(#filter0_d_1_488)">
<path d="M30.4495 11.9956C30.469 12.2581 30.469 12.5191 30.469 12.7801C30.469 20.7676 24.3895 29.9716 13.279 29.9716C9.856 29.9716 6.676 28.9801 4 27.2581C4.486 27.3136 4.954 27.3331 5.4595 27.3331C8.17899 27.3396 10.8215 26.4303 12.961 24.7516C11.7001 24.7287 10.4779 24.3128 9.46486 23.5617C8.45185 22.8106 7.69868 21.7619 7.3105 20.5621C7.684 20.6176 8.059 20.6551 8.452 20.6551C8.9935 20.6551 9.538 20.5801 10.0435 20.4496C8.67514 20.1733 7.44471 19.4316 6.56143 18.3506C5.67815 17.2696 5.19654 15.916 5.1985 14.5201V14.4451C6.004 14.8936 6.9385 15.1741 7.9285 15.2116C7.09913 14.6604 6.41908 13.9126 5.94901 13.0348C5.47894 12.1569 5.23347 11.1763 5.2345 10.1806C5.2345 9.05857 5.533 8.02957 6.0565 7.13257C7.57471 9.0001 9.46825 10.5279 11.6145 11.6171C13.7608 12.7062 16.1118 13.3324 18.5155 13.4551C18.4225 13.0051 18.3655 12.5386 18.3655 12.0706C18.3651 11.277 18.5211 10.4912 18.8246 9.75793C19.1281 9.0247 19.5732 8.35848 20.1343 7.79735C20.6954 7.23622 21.3616 6.79118 22.0949 6.48768C22.8281 6.18418 23.6139 6.02817 24.4075 6.02857C26.1475 6.02857 27.718 6.75756 28.822 7.93657C30.1747 7.67499 31.4718 7.1812 32.656 6.47706C32.2051 7.87329 31.2606 9.05722 29.9995 9.80707C31.1992 9.67023 32.3717 9.35474 33.478 8.87107C32.6517 10.0757 31.6278 11.1321 30.4495 11.9956Z" fill="white" fill-opacity="0.78"/>
</g>
<defs>
<filter id="filter0_d_1_488" x="-3" y="0" width="44" height="44" filterUnits="userSpaceOnUse" color-interpolation-filters="sRGB">
<feFlood flood-opacity="0" result="BackgroundImageFix"/>
<feColorMatrix in="SourceAlpha" type="matrix" values="0 0 0 0 0 0 0 0 0 0 0 0 0 0 0 0 0 0 127 0" result="hardAlpha"/>
<feOffset dy="4"/>
<feGaussianBlur stdDeviation="2"/>
<feComposite in2="hardAlpha" operator="out"/>
<feColorMatrix type="matrix" values="0 0 0 0 0 0 0 0 0 0 0 0 0 0 0 0 0 0 0.25 0"/>
<feBlend mode="normal" in2="BackgroundImageFix" result="effect1_dropShadow_1_488"/>
<feBlend mode="normal" in="SourceGraphic" in2="effect1_dropShadow_1_488" result="shape"/>
</filter>
</defs>
</svg>
